#!OML:ASF H:\Dans Jumps\Project 1\Capture day 1\Session 1\subject.ASF
:FULLY-SPECIFIED
:DEGREES
123
root 0.495426 17.5156 -14.2942 6.50739 -0.478256 -2.04159
lowerback -1.74682 -0.694202 0.526841
upperback 5.04841 -1.0473 1.6766
thorax 6.2401 -0.539954 1.37382
lowerneck -11.1001 0.539425 -2.29645
upperneck 36.2045 1.09679 0.79287
head 14.2176 0.255507 0.89329
rclavicle -4.87022e-015 -2.78299e-015
rhumerus -18.1707 -16.7583 -82.7643
rradius 25.9366
rwrist 31.9443
rhand -18.3112 -26.8367
rfingers 7.12502
rthumb 7.96995 -56.6664
lclavicle -4.87022e-015 -2.78299e-015
lhumerus -15.8585 0.010603 88.3667
lradius 18.3625
lwrist -0.653352
lhand -23.6672 -3.52398
lfingers 7.12502
lthumb 2.79881 26.4374
rfemur -13.8018 -2.45769 19.1709
rtibia 21.195
rfoot -13.0569 -2.03871
rtoes 4.89288
lfemur -13.9339 7.93277 -17.2853
ltibia 19.9844
lfoot -10.5869 4.94587
ltoes -12.7209
124
root 0.495178 17.5152 -14.2962 6.50118 -0.467026 -2.04495
lowerback -1.73046 -0.692399 0.525131
upperback 5.0481 -1.04463 1.67876
thorax 6.23037 -0.538776 1.37738
lowerneck -11.1224 0.543471 -2.28468
upperneck 36.1918 1.10509 0.780361
head 14.2168 0.259232 0.887402
rclavicle 5.96354e-016 -1.2921e-014
rhumerus -18.1691 -16.7206 -82.7814
rradius 25.9393
rwrist 31.932
rhand -18.3047 -26.8272
rfingers 7.12502
rthumb 7.97622 -56.6567
lclavicle 5.96354e-016 -1.2921e-014
lhumerus -15.8455 -0.0814624 88.3768
lradius 18.4005
lwrist -0.581861
lhand -23.6649 -3.51765
lfingers 7.12502
lthumb 2.80101 26.4437
rfemur -13.805 -2.46296 19.1758
rtibia 21.2045
rfoot -13.0616 -2.04285
rtoes 4.89976
lfemur -13.9487 7.9286 -17.2808
ltibia 20.0093
lfoot -10.5935 4.93719
ltoes -12.7109
125
root 0.494898 17.5148 -14.2982 6.49521 -0.453459 -2.04581
lowerback -1.71398 -0.692486 0.521308
upperback 5.04701 -1.04436 1.68077
thorax 6.21981 -0.53888 1.3818
lowerneck -11.1448 0.548415 -2.27402
upperneck 36.1799 1.11482 0.768304
head 14.2164 0.26346 0.882121
rclavicle -5.1684e-015 1.98785e-015
rhumerus -18.1694 -16.6765 -82.7996
rradius 25.9412
rwrist 31.9166
rhand -18.3018 -26.8137
rfingers 7.12502
rthumb 7.97906 -56.6431
lclavicle -5.1684e-015 1.98785e-015
lhumerus -15.8339 -0.167121 88.3848
lradius 18.436
lwrist -0.515576
lhand -23.6641 -3.50941
lfingers 7.12502
lthumb 2.80172 26.4519
rfemur -13.8086 -2.46927 19.1782
rtibia 21.2149
rfoot -13.0667 -2.04902
rtoes 4.91002
lfemur -13.9645 7.92223 -17.279
ltibia 20.0341
lfoot -10.5985 4.92975
ltoes -12.7136
126
root 0.494516 17.5143 -14.3003 6.49073 -0.438911 -2.0478
lowerback -1.69804 -0.693247 0.518339
upperback 5.04557 -1.04508 1.68343
thorax 6.20923 -0.539447 1.38636
lowerneck -11.1672 0.552921 -2.2671
upperneck 36.1664 1.12411 0.758388
head 14.2152 0.267285 0.878291
rclavicle 4.91992e-015 -8.34896e-015
rhumerus -18.1688 -16.6309 -82.8184
rradius 25.942
rwrist 31.9015
rhand -18.2937 -26.8044
rfingers 7.12502
rthumb 7.98685 -56.6335
lclavicle 4.91992e-015 -8.34896e-015
lhumerus -15.8214 -0.245129 88.3905
lradius 18.4681
lwrist -0.45987
lhand -23.6628 -3.5073
lfingers 7.12502
lthumb 2.80304 26.454
rfemur -13.815 -2.47297 19.1824
rtibia 21.227
rfoot -13.0701 -2.05912
rtoes 4.90922
lfemur -13.9825 7.91586 -17.2759
ltibia 20.0573
lfoot -10.6007 4.92274
ltoes -12.725
